<svg xmlns="http://www.w3.org/2000/svg" viewBox="0 0 97.16 97.16"><defs><style>.cls-1{fill:#0b4fa1;}</style></defs><title>uploadicon</title><g id="Layer_2" data-name="Layer 2"><g id="Layer_1-2" data-name="Layer 1"><g id="Group_18" data-name="Group 18"><path id="Path_24" data-name="Path 24" class="cls-1" d="M68.22,16.78,52,.6a2,2,0,0,0-2.85,0v0L33,16.78a2,2,0,0,0,2.86,2.86L48.58,6.91V50.6a2,2,0,0,0,4.05,0h0V6.9L65.37,19.64a2,2,0,0,0,2.86-2.86Z"/><path id="Path_25" data-name="Path 25" class="cls-1" d="M96.69,69.54,76.45,45.25a2,2,0,0,0-1.56-.72h-4a2,2,0,0,0,0,4h3.1L90.81,68.81H6.34L23.21,48.57h5.13a2,2,0,1,0,0-4H22.27a2,2,0,0,0-1.56.72L.47,69.54A2.07,2.07,0,0,0,0,70.84V87A10.13,10.13,0,0,0,10.12,97.16H87A10.14,10.14,0,0,0,97.16,87V70.84A2.07,2.07,0,0,0,96.69,69.54ZM81,85H64.77a2,2,0,0,1,0-4.05H81A2,2,0,1,1,81,85Z"/></g></g></g></svg>